<mxfile host="app.diagrams.net" agent="Mozilla/5.0 (X11; Linux x86_64; rv:134.0) Gecko/20100101 Firefox/134.0" version="26.0.10">
  <diagram name="Page-1" id="WuUM249Ig283p5ITUKCs">
    <mxGraphModel dx="1434" dy="749" grid="1" gridSize="10" guides="1" tooltips="1" connect="1" arrows="1" fold="1" page="1" pageScale="1" pageWidth="850" pageHeight="1100" math="0" shadow="0">
      <root>
        <mxCell id="0" />
        <mxCell id="1" parent="0" />
        <object label="Vertical Tree Layout" id="LX62pUY2U2h5EbIXeFN--1">
          <mxCell style="swimlane;startSize=20;horizontal=1;childLayout=treeLayout;horizontalTree=0;sortEdges=1;resizable=0;containerType=tree;fontSize=12;" vertex="1" parent="1">
            <mxGeometry x="280" y="300" width="280" height="190" as="geometry" />
          </mxCell>
        </object>
        <mxCell id="LX62pUY2U2h5EbIXeFN--2" value="Root" style="whiteSpace=wrap;html=1;" vertex="1" parent="LX62pUY2U2h5EbIXeFN--1">
          <mxGeometry x="90" y="40" width="100" height="40" as="geometry" />
        </mxCell>
        <mxCell id="LX62pUY2U2h5EbIXeFN--3" value="Child 1" style="whiteSpace=wrap;html=1;" vertex="1" parent="LX62pUY2U2h5EbIXeFN--1">
          <mxGeometry x="20" y="130" width="100" height="40" as="geometry" />
        </mxCell>
        <mxCell id="LX62pUY2U2h5EbIXeFN--4" value="" style="edgeStyle=elbowEdgeStyle;elbow=vertical;html=1;rounded=1;curved=0;sourcePerimeterSpacing=0;targetPerimeterSpacing=0;startSize=6;endSize=6;" edge="1" parent="LX62pUY2U2h5EbIXeFN--1" source="LX62pUY2U2h5EbIXeFN--2" target="LX62pUY2U2h5EbIXeFN--3">
          <mxGeometry relative="1" as="geometry" />
        </mxCell>
        <mxCell id="LX62pUY2U2h5EbIXeFN--5" value="Child 2" style="whiteSpace=wrap;html=1;" vertex="1" parent="LX62pUY2U2h5EbIXeFN--1">
          <mxGeometry x="160" y="130" width="100" height="40" as="geometry" />
        </mxCell>
        <mxCell id="LX62pUY2U2h5EbIXeFN--6" value="" style="edgeStyle=elbowEdgeStyle;elbow=vertical;html=1;rounded=1;curved=0;sourcePerimeterSpacing=0;targetPerimeterSpacing=0;startSize=6;endSize=6;" edge="1" parent="LX62pUY2U2h5EbIXeFN--1" source="LX62pUY2U2h5EbIXeFN--2" target="LX62pUY2U2h5EbIXeFN--5">
          <mxGeometry relative="1" as="geometry" />
        </mxCell>
      </root>
    </mxGraphModel>
  </diagram>
</mxfile>
